<mxfile host="app.diagrams.net" agent="Mozilla/5.0 (X11; CrOS x86_64 14541.0.0) AppleWebKit/537.36 (KHTML, like Gecko) Chrome/126.0.0.0 Safari/537.36" version="24.7.7">
  <diagram name="Page-1" id="ouSQBoKPhBjntqpIG_5S">
    <mxGraphModel dx="1200" dy="677" grid="1" gridSize="10" guides="1" tooltips="1" connect="1" arrows="1" fold="1" page="1" pageScale="1" pageWidth="827" pageHeight="1169" math="0" shadow="0">
      <root>
        <mxCell id="0" />
        <mxCell id="1" parent="0" />
        <mxCell id="DH8FeyKyBTnjoNIfmHg2-6" value="" style="edgeStyle=orthogonalEdgeStyle;rounded=0;orthogonalLoop=1;jettySize=auto;html=1;" edge="1" parent="1" source="DH8FeyKyBTnjoNIfmHg2-1" target="DH8FeyKyBTnjoNIfmHg2-5">
          <mxGeometry relative="1" as="geometry" />
        </mxCell>
        <mxCell id="DH8FeyKyBTnjoNIfmHg2-1" value="siswa" style="rounded=0;whiteSpace=wrap;html=1;" vertex="1" parent="1">
          <mxGeometry x="80" y="160" width="120" height="60" as="geometry" />
        </mxCell>
        <mxCell id="DH8FeyKyBTnjoNIfmHg2-12" value="" style="edgeStyle=orthogonalEdgeStyle;rounded=0;orthogonalLoop=1;jettySize=auto;html=1;" edge="1" parent="1" source="DH8FeyKyBTnjoNIfmHg2-2" target="DH8FeyKyBTnjoNIfmHg2-11">
          <mxGeometry relative="1" as="geometry" />
        </mxCell>
        <mxCell id="DH8FeyKyBTnjoNIfmHg2-2" value="secretaries &amp;amp; guru" style="rounded=0;whiteSpace=wrap;html=1;" vertex="1" parent="1">
          <mxGeometry x="80" y="280" width="120" height="60" as="geometry" />
        </mxCell>
        <mxCell id="DH8FeyKyBTnjoNIfmHg2-20" value="" style="edgeStyle=orthogonalEdgeStyle;rounded=0;orthogonalLoop=1;jettySize=auto;html=1;" edge="1" parent="1" source="DH8FeyKyBTnjoNIfmHg2-3" target="DH8FeyKyBTnjoNIfmHg2-19">
          <mxGeometry relative="1" as="geometry" />
        </mxCell>
        <mxCell id="DH8FeyKyBTnjoNIfmHg2-3" value="guru piket" style="rounded=0;whiteSpace=wrap;html=1;" vertex="1" parent="1">
          <mxGeometry x="80" y="400" width="120" height="60" as="geometry" />
        </mxCell>
        <mxCell id="DH8FeyKyBTnjoNIfmHg2-8" value="" style="edgeStyle=orthogonalEdgeStyle;rounded=0;orthogonalLoop=1;jettySize=auto;html=1;" edge="1" parent="1" source="DH8FeyKyBTnjoNIfmHg2-5" target="DH8FeyKyBTnjoNIfmHg2-7">
          <mxGeometry relative="1" as="geometry" />
        </mxCell>
        <mxCell id="DH8FeyKyBTnjoNIfmHg2-5" value="login" style="whiteSpace=wrap;html=1;rounded=0;" vertex="1" parent="1">
          <mxGeometry x="280" y="160" width="120" height="60" as="geometry" />
        </mxCell>
        <mxCell id="DH8FeyKyBTnjoNIfmHg2-10" value="" style="edgeStyle=orthogonalEdgeStyle;rounded=0;orthogonalLoop=1;jettySize=auto;html=1;" edge="1" parent="1" source="DH8FeyKyBTnjoNIfmHg2-7" target="DH8FeyKyBTnjoNIfmHg2-9">
          <mxGeometry relative="1" as="geometry" />
        </mxCell>
        <mxCell id="DH8FeyKyBTnjoNIfmHg2-7" value="memilih presensi&amp;nbsp;" style="whiteSpace=wrap;html=1;rounded=0;" vertex="1" parent="1">
          <mxGeometry x="480" y="160" width="120" height="60" as="geometry" />
        </mxCell>
        <mxCell id="DH8FeyKyBTnjoNIfmHg2-9" value="Mengisi presensi" style="whiteSpace=wrap;html=1;rounded=0;" vertex="1" parent="1">
          <mxGeometry x="680" y="160" width="120" height="60" as="geometry" />
        </mxCell>
        <mxCell id="DH8FeyKyBTnjoNIfmHg2-14" value="" style="edgeStyle=orthogonalEdgeStyle;rounded=0;orthogonalLoop=1;jettySize=auto;html=1;" edge="1" parent="1" source="DH8FeyKyBTnjoNIfmHg2-11" target="DH8FeyKyBTnjoNIfmHg2-13">
          <mxGeometry relative="1" as="geometry" />
        </mxCell>
        <mxCell id="DH8FeyKyBTnjoNIfmHg2-11" value="login" style="rounded=0;whiteSpace=wrap;html=1;" vertex="1" parent="1">
          <mxGeometry x="280" y="280" width="120" height="60" as="geometry" />
        </mxCell>
        <mxCell id="DH8FeyKyBTnjoNIfmHg2-16" value="" style="edgeStyle=orthogonalEdgeStyle;rounded=0;orthogonalLoop=1;jettySize=auto;html=1;" edge="1" parent="1" source="DH8FeyKyBTnjoNIfmHg2-13" target="DH8FeyKyBTnjoNIfmHg2-15">
          <mxGeometry relative="1" as="geometry" />
        </mxCell>
        <mxCell id="DH8FeyKyBTnjoNIfmHg2-13" value="mengecek presensi" style="rounded=0;whiteSpace=wrap;html=1;" vertex="1" parent="1">
          <mxGeometry x="480" y="280" width="120" height="60" as="geometry" />
        </mxCell>
        <mxCell id="DH8FeyKyBTnjoNIfmHg2-18" value="" style="edgeStyle=orthogonalEdgeStyle;rounded=0;orthogonalLoop=1;jettySize=auto;html=1;" edge="1" parent="1" source="DH8FeyKyBTnjoNIfmHg2-15" target="DH8FeyKyBTnjoNIfmHg2-17">
          <mxGeometry relative="1" as="geometry" />
        </mxCell>
        <mxCell id="DH8FeyKyBTnjoNIfmHg2-15" value="memperivikasi presesnsi" style="rounded=0;whiteSpace=wrap;html=1;" vertex="1" parent="1">
          <mxGeometry x="680" y="280" width="120" height="60" as="geometry" />
        </mxCell>
        <mxCell id="DH8FeyKyBTnjoNIfmHg2-17" value="laporan presensi" style="rounded=0;whiteSpace=wrap;html=1;" vertex="1" parent="1">
          <mxGeometry x="880" y="280" width="120" height="60" as="geometry" />
        </mxCell>
        <mxCell id="DH8FeyKyBTnjoNIfmHg2-22" value="" style="edgeStyle=orthogonalEdgeStyle;rounded=0;orthogonalLoop=1;jettySize=auto;html=1;" edge="1" parent="1" source="DH8FeyKyBTnjoNIfmHg2-19" target="DH8FeyKyBTnjoNIfmHg2-21">
          <mxGeometry relative="1" as="geometry" />
        </mxCell>
        <mxCell id="DH8FeyKyBTnjoNIfmHg2-19" value="login" style="rounded=0;whiteSpace=wrap;html=1;" vertex="1" parent="1">
          <mxGeometry x="280" y="400" width="120" height="60" as="geometry" />
        </mxCell>
        <mxCell id="DH8FeyKyBTnjoNIfmHg2-21" value="laporan presensi" style="rounded=0;whiteSpace=wrap;html=1;" vertex="1" parent="1">
          <mxGeometry x="480" y="400" width="120" height="60" as="geometry" />
        </mxCell>
      </root>
    </mxGraphModel>
  </diagram>
</mxfile>
